<svg preserveAspectRatio="none" overflow="visible" style="display: block;" width="24" height="24" viewBox="0 0 24 24" fill="none" xmlns="http://www.w3.org/2000/svg">
<g id="fan">
<path id="Vector" d="M12 11.9996V12.0096M10.8271 16.3787C9.77924 16.9082 8.60053 17.1232 7.43323 16.9976C6.26593 16.8719 5.15993 16.4112 4.24873 15.6708C3.33753 14.9305 2.66009 13.9423 2.29816 12.8254C1.93623 11.7085 1.9053 10.5108 2.20909 9.37672L7.62109 10.8267C7.09157 9.77888 6.87664 8.60016 7.00225 7.43286C7.12787 6.26556 7.58865 5.15956 8.32898 4.24836C9.06932 3.33717 10.0576 2.65972 11.1744 2.29779C12.2913 1.93587 13.489 1.90493 14.6231 2.20872L13.1731 7.62072C14.2209 7.0912 15.3996 6.87627 16.5669 7.00189C17.7343 7.1275 18.8402 7.58828 19.7514 8.32862C20.6626 9.06895 21.3401 10.0572 21.702 11.1741C22.0639 12.2909 22.0949 13.4887 21.7911 14.6227L16.3791 13.1727C16.9086 14.2206 17.1235 15.3993 16.9979 16.5666C16.8723 17.7339 16.4115 18.8399 15.6712 19.7511C14.9309 20.6623 13.9426 21.3397 12.8258 21.7016C11.7089 22.0636 10.5111 22.0945 9.37709 21.7907L10.8271 16.3787Z" stroke="#00A0E0" stroke-width="2" stroke-linecap="round"/>
</g>
</svg>
